<svg width="428" height="176" viewBox="0 0 428 176" fill="none" xmlns="http://www.w3.org/2000/svg">
<path d="M77.3159 20.7243C-5.46478 -57.7319 -150.331 133.227 -54.2462 205.762C41.8385 278.297 574 205.762 574 205.762V0C574 0 548.87 109.543 448.351 133.227C347.831 156.912 476.437 63.6531 372.961 35.5273C269.485 7.40152 250.268 66.6137 217.747 85.8576C185.227 105.102 160.097 99.1804 77.3159 20.7243Z" fill="#EDF5FF"/>
<path d="M148.056 51.7636C77.0651 -15.4845 -47.1687 148.195 35.2313 210.368C117.631 272.54 574 210.368 574 210.368V34C574 34 552.449 127.894 466.246 148.195C380.043 168.496 490.332 88.5598 401.594 64.452C312.856 40.3442 296.376 91.0974 268.486 107.592C240.597 124.087 219.046 119.012 148.056 51.7636Z" fill="#DFEAF9"/>
<path d="M76.0329 48.0194C16.205 -5.05391 -88.4937 124.124 -19.0507 173.192C50.3924 222.26 435 173.192 435 173.192V34C435 34 416.838 108.102 344.19 124.124C271.542 140.147 364.489 77.0594 289.704 58.0332C214.919 39.0069 201.03 79.0622 177.527 92.0802C154.023 105.098 135.861 101.093 76.0329 48.0194Z" fill="#B7CBE6" fill-opacity="0.7"/>
</svg>
