<svg width="37" height="37" viewBox="0 0 37 37" fill="none" xmlns="http://www.w3.org/2000/svg">
<path d="M2.3125 23.7031C1.99323 23.7031 1.73438 23.4443 1.73438 23.125V20.2344C1.73438 19.9151 1.99323 19.6562 2.3125 19.6562C2.63177 19.6562 2.89062 19.9151 2.89062 20.2344V23.125C2.89062 23.4443 2.63177 23.7031 2.3125 23.7031Z" fill="#555A6E"/>
<path d="M21.9688 6.5636V6.20899C21.9688 5.33414 21.2596 4.625 20.3848 4.625H8.72427C7.6478 4.625 6.68255 5.28797 6.29614 6.29267L1.22122 19.4872C1.17829 19.5989 1.15625 19.7177 1.15625 19.8373C1.15625 20.3759 1.59288 20.8125 2.1314 20.8125H5.28565L1.46475 31.5113C1.31437 31.9322 1.62641 32.375 2.07337 32.375H5.54212C5.69641 32.375 5.84564 32.3198 5.96278 32.2194L21.4156 18.9741C21.7667 18.6732 21.9688 18.2339 21.9688 17.7715C21.9688 16.8967 21.2596 16.1875 20.3848 16.1875H17.3438L21.8015 7.27195C21.9115 7.05197 21.9688 6.80952 21.9688 6.5636Z" fill="#FAA037"/>
<path d="M16.916 4.625H8.72427C7.6478 4.625 6.68255 5.28797 6.29614 6.29267L1.22122 19.4872C1.17822 19.5989 1.15625 19.7176 1.15625 19.8373C1.15625 20.3759 1.59288 20.8125 2.1314 20.8125H5.28572L1.46475 31.5113C1.31437 31.9322 1.62641 32.375 2.07337 32.375C2.22766 32.375 2.37689 32.3198 2.49403 32.2194L17.9469 18.9741C18.2979 18.6732 18.5 18.2339 18.5 17.7715C18.5 16.8967 17.7909 16.1875 16.916 16.1875H13.875L18.3328 7.27195C18.4428 7.05197 18.5 6.80945 18.5 6.5636V6.20899C18.5 5.33414 17.7909 4.625 16.916 4.625Z" fill="#FFD241"/>
<path d="M30.7721 10.5287C30.201 10.2431 29.5063 10.4745 29.2208 11.0457L29.0754 11.3366C29.0076 10.9989 28.7916 10.6945 28.4596 10.5286C27.8885 10.243 27.1938 10.4745 26.9083 11.0456L26.5862 11.6898C26.5908 11.6481 26.5935 11.6059 26.5935 11.5629C26.5935 10.9242 26.0758 10.4066 25.4373 10.4066H23.715C22.9102 10.4066 22.1866 10.8538 21.8267 11.5736L21.5912 12.0447C21.3279 12.5712 21.2969 13.1888 21.5061 13.739C21.6894 14.2209 22.0446 14.6191 22.4972 14.8574L22.4101 15.0316H20.8123C20.5054 15.0316 20.2272 15.152 20.0203 15.347L21.2355 12.9166C21.5062 12.375 21.4778 11.7442 21.1595 11.2291C20.8411 10.7141 20.2897 10.4066 19.6841 10.4066H19.0217C18.14 10.4066 17.3475 10.8964 16.9533 11.6849L15.0255 15.5404C14.8176 15.2334 14.4661 15.0316 14.0674 15.0316H13.6258L15.1016 12.0799C15.3872 11.5088 15.1557 10.8142 14.5845 10.5287C14.0133 10.2431 13.3188 10.4745 13.0332 11.0457L12.7112 11.6898C12.7158 11.6481 12.7185 11.6059 12.7185 11.5629C12.7185 10.9242 12.2008 10.4066 11.5623 10.4066H9.24978C8.81178 10.4066 8.41143 10.654 8.21559 11.0458L5.90308 15.6708C5.61749 16.2419 5.84903 16.9365 6.42022 17.2221C6.58621 17.305 6.76261 17.3444 6.93641 17.3444C7.36054 17.3444 7.76891 17.1101 7.97147 16.7049L8.80816 15.0316H10.406C10.7129 15.0316 10.9911 14.9112 11.1981 14.7162L10.7207 15.6708C10.5416 16.0292 10.5607 16.4549 10.7714 16.7958C10.9821 17.1366 11.3542 17.3441 11.7549 17.3441H14.0674C14.47 17.3441 14.8243 17.1381 15.0313 16.826C15.1394 16.9894 15.2896 17.1281 15.4775 17.222C16.0486 17.5076 16.7432 17.276 17.0287 16.7049L17.1733 16.4156C17.2413 16.7528 17.4584 17.0563 17.7899 17.222C17.9559 17.3049 18.1323 17.3443 18.3061 17.3443C18.7302 17.3443 19.1387 17.11 19.3412 16.7048L19.6633 16.0607C19.6588 16.1026 19.656 16.1449 19.656 16.1879C19.656 16.8265 20.1737 17.3441 20.8123 17.3441H22.5346C23.3394 17.3441 24.0629 16.8969 24.4229 16.1771L24.482 16.0589C24.4295 16.527 24.667 16.9992 25.1129 17.2221C25.2789 17.305 25.4553 17.3444 25.6291 17.3444C26.0532 17.3444 26.4616 17.1101 26.6641 16.7049L26.8096 16.4141C26.8773 16.7517 27.0934 17.0561 27.4254 17.2221C27.5914 17.305 27.7678 17.3444 27.9416 17.3444C28.3657 17.3444 28.7741 17.1101 28.9766 16.7049L31.2891 12.0799C31.5747 11.5088 31.3433 10.8143 30.7721 10.5287ZM11.555 14.0024C11.5595 13.9606 11.5623 13.9184 11.5623 13.8754C11.5623 13.2367 11.0446 12.7191 10.406 12.7191H11.5623C11.8692 12.7191 12.1473 12.5987 12.3543 12.4037L11.555 14.0024ZM24.8376 15.1873C24.9173 14.7978 24.8869 14.3889 24.7435 14.0116C24.5602 13.5297 24.2049 13.1315 23.7523 12.8932L23.8394 12.719H25.4373C25.7442 12.719 26.0223 12.5986 26.2293 12.4036L24.8376 15.1873Z" fill="#E64178"/>
<path d="M10.4063 13.2969H9.02925L9.60738 12.1406H11.5626C11.8819 12.1406 12.1407 11.8818 12.1407 11.5625C12.1407 11.2432 11.8819 10.9844 11.5626 10.9844H9.2501C9.03113 10.9844 8.83096 11.1081 8.73304 11.3039L6.42054 15.9289C6.27774 16.2145 6.39351 16.5618 6.6791 16.7046C6.76206 16.746 6.8503 16.7658 6.93716 16.7658C7.14926 16.7658 7.35341 16.6486 7.45473 16.4461L8.45113 14.4531H10.4063C10.7256 14.4531 10.9845 14.1943 10.9845 13.875C10.9845 13.5557 10.7256 13.2969 10.4063 13.2969Z" fill="#FF6E91"/>
<path d="M14.0679 15.6095H12.6908L14.585 11.8212C14.7278 11.5356 14.612 11.1883 14.3264 11.0456C14.0408 10.9027 13.6936 11.0185 13.5508 11.3041L11.2383 15.9291C11.1487 16.1083 11.1583 16.3212 11.2636 16.4916C11.3689 16.662 11.555 16.7658 11.7553 16.7658H14.0678C14.3871 16.7658 14.646 16.5069 14.646 16.1876C14.646 15.8684 14.3872 15.6095 14.0679 15.6095Z" fill="#FF6E91"/>
<path d="M20.6679 11.5327C20.4556 11.1894 20.0879 10.9844 19.6843 10.9844H19.0219C18.3606 10.9844 17.7662 11.3518 17.4706 11.9431L15.4777 15.9289C15.3349 16.2145 15.4506 16.5618 15.7362 16.7046C16.0219 16.8474 16.3691 16.7316 16.5119 16.4461L17.5083 14.4531H18.528L17.7901 15.9289C17.6473 16.2145 17.7631 16.5618 18.0487 16.7046C18.1316 16.746 18.2199 16.7658 18.3067 16.7658C18.5188 16.7658 18.723 16.6486 18.8243 16.4461L20.7184 12.6578C20.899 12.2966 20.88 11.8761 20.6679 11.5327ZM18.0864 13.2969L18.5047 12.4602C18.6032 12.263 18.8014 12.1406 19.0218 12.1406H19.6842L19.1061 13.2969H18.0864Z" fill="#FF6E91"/>
<path d="M23.3397 13.3383C23.2062 13.2849 23.1494 13.1801 23.1275 13.1224C23.1055 13.0647 23.0783 12.9487 23.1426 12.82L23.3781 12.349C23.4424 12.2205 23.5715 12.1406 23.7152 12.1406H25.4375C25.7568 12.1406 26.0156 11.8818 26.0156 11.5625C26.0156 11.2432 25.7568 10.9844 25.4375 10.9844H23.7152C23.1308 10.9844 22.6054 11.3091 22.344 11.8318L22.1085 12.3029C21.9173 12.6852 21.8948 13.1337 22.0467 13.5333C22.1987 13.9328 22.5134 14.253 22.9103 14.4118C23.0438 14.4652 23.1006 14.57 23.1225 14.6277C23.1445 14.6854 23.1717 14.8014 23.1074 14.9301L22.8719 15.4011C22.8076 15.5296 22.6785 15.6094 22.5348 15.6094H20.8125C20.4932 15.6094 20.2344 15.8683 20.2344 16.1876C20.2344 16.5068 20.4932 16.7657 20.8125 16.7657H22.5348C23.1192 16.7657 23.6446 16.441 23.906 15.9182L24.1415 15.4472C24.3327 15.0649 24.3552 14.6164 24.2033 14.2168C24.0514 13.8173 23.7366 13.4971 23.3397 13.3383Z" fill="#FF6E91"/>
<path d="M30.514 11.0456C30.2284 10.9027 29.8811 11.0185 29.7384 11.3041L28.7419 13.297H27.7222L28.4601 11.8212C28.6029 11.5356 28.4871 11.1883 28.2015 11.0456C27.9159 10.9027 27.5687 11.0185 27.4259 11.3041L25.1134 15.9291C24.9706 16.2147 25.0864 16.562 25.372 16.7047C25.4549 16.7462 25.5432 16.7659 25.63 16.7659C25.8421 16.7659 26.0463 16.6487 26.1476 16.4462L27.1441 14.4533H28.1638L27.4259 15.9291C27.2831 16.2147 27.3989 16.562 27.6845 16.7047C27.7674 16.7462 27.8557 16.7659 27.9425 16.7659C28.1546 16.7659 28.3588 16.6487 28.4601 16.4462L30.7726 11.8212C30.9154 11.5356 30.7996 11.1883 30.514 11.0456Z" fill="#FF6E91"/>
<path d="M14.1188 32.375H34.6875C35.3261 32.375 35.8438 31.8574 35.8438 31.2188V19.6562C35.8438 19.0176 35.3261 18.5 34.6875 18.5H14.1188C13.5986 18.5 13.1058 18.7335 12.7764 19.1361L8.45985 24.4119C8.22311 24.7013 8.09375 25.0637 8.09375 25.4375C8.09375 25.8113 8.22311 26.1737 8.45985 26.4631L12.7764 31.7389C13.1058 32.1415 13.5986 32.375 14.1188 32.375Z" fill="#289BC3"/>
<path d="M14.1188 32.375H32.9531C33.5917 32.375 34.1094 31.8574 34.1094 31.2188V19.6562C34.1094 19.0176 33.5917 18.5 32.9531 18.5H14.1188C13.5986 18.5 13.1058 18.7335 12.7764 19.1361L8.45985 24.4119C8.22311 24.7013 8.09375 25.0637 8.09375 25.4375C8.09375 25.8113 8.22311 26.1737 8.45985 26.4631L12.7764 31.7389C13.1058 32.1415 13.5986 32.375 14.1188 32.375Z" fill="#00D2D2"/>
<path d="M10.9844 27.1719C11.9422 27.1719 12.7188 26.3954 12.7188 25.4375C12.7188 24.4796 11.9422 23.7031 10.9844 23.7031C10.0265 23.7031 9.25 24.4796 9.25 25.4375C9.25 26.3954 10.0265 27.1719 10.9844 27.1719Z" fill="#289BC3"/>
<path d="M15.8984 20.8125C14.7827 20.8125 13.875 21.7202 13.875 22.8359V23.8808C13.875 24.713 14.3743 25.4504 15.147 25.7596L16.2205 26.1889C16.5516 26.3214 16.7656 26.6375 16.7656 26.9942V28.0391C16.7656 28.5172 16.3766 28.9062 15.8984 28.9062C15.4203 28.9062 15.0312 28.5172 15.0312 28.0391V27.75C15.0312 27.4307 14.7724 27.1719 14.4531 27.1719C14.1339 27.1719 13.875 27.4307 13.875 27.75V28.0391C13.875 29.1548 14.7827 30.0625 15.8984 30.0625C17.0141 30.0625 17.9219 29.1548 17.9219 28.0391V26.9942C17.9219 26.162 17.4226 25.4246 16.6499 25.1154L15.5764 24.6861C15.2452 24.5536 15.0312 24.2375 15.0312 23.8808V22.8359C15.0312 22.3578 15.4203 21.9688 15.8984 21.9688C16.3766 21.9688 16.7656 22.3578 16.7656 22.8359V23.125C16.7656 23.4443 17.0245 23.7031 17.3438 23.7031C17.663 23.7031 17.9219 23.4443 17.9219 23.125V22.8359C17.9219 21.7202 17.0141 20.8125 15.8984 20.8125Z" fill="#D7E6F0"/>
<path d="M21.1016 20.8125C19.9859 20.8125 19.0781 21.7202 19.0781 22.8359V29.4844C19.0781 29.8036 19.337 30.0625 19.6562 30.0625C19.9755 30.0625 20.2344 29.8036 20.2344 29.4844V26.0156H21.9688V29.4844C21.9688 29.8036 22.2276 30.0625 22.5469 30.0625C22.8661 30.0625 23.125 29.8036 23.125 29.4844V22.8359C23.125 21.7202 22.2173 20.8125 21.1016 20.8125ZM20.2344 24.8594V22.8359C20.2344 22.3578 20.6234 21.9688 21.1016 21.9688C21.5797 21.9688 21.9688 22.3578 21.9688 22.8359V24.8594H20.2344Z" fill="#D7E6F0"/>
<path d="M27.75 28.9062H26.0156C25.6969 28.9062 25.4375 28.6469 25.4375 28.3281V21.3906C25.4375 21.0714 25.1786 20.8125 24.8594 20.8125C24.5401 20.8125 24.2812 21.0714 24.2812 21.3906V28.3281C24.2812 29.2844 25.0593 30.0625 26.0156 30.0625H27.75C28.0693 30.0625 28.3281 29.8036 28.3281 29.4844C28.3281 29.1651 28.0693 28.9062 27.75 28.9062Z" fill="#D7E6F0"/>
<path d="M32.375 28.9062H30.6406C30.3219 28.9062 30.0625 28.6469 30.0625 28.3281V26.0156H31.2188C31.538 26.0156 31.7969 25.7568 31.7969 25.4375C31.7969 25.1182 31.538 24.8594 31.2188 24.8594H30.0625V22.5469C30.0625 22.2281 30.3219 21.9688 30.6406 21.9688H32.375C32.6943 21.9688 32.9531 21.7099 32.9531 21.3906C32.9531 21.0714 32.6943 20.8125 32.375 20.8125H30.6406C29.6843 20.8125 28.9062 21.5906 28.9062 22.5469V28.3281C28.9062 29.2844 29.6843 30.0625 30.6406 30.0625H32.375C32.6943 30.0625 32.9531 29.8036 32.9531 29.4844C32.9531 29.1651 32.6943 28.9062 32.375 28.9062Z" fill="#D7E6F0"/>
<path d="M10.9844 26.0156H4.625C3.03111 26.0156 1.73438 24.7189 1.73438 23.125C1.73438 22.8057 1.99323 22.5469 2.3125 22.5469C2.63177 22.5469 2.89062 22.8057 2.89062 23.125C2.89062 24.0813 3.66864 24.8594 4.625 24.8594H10.9844C11.3036 24.8594 11.5625 25.1182 11.5625 25.4375C11.5625 25.7568 11.3036 26.0156 10.9844 26.0156Z" fill="#555A6E"/>
<path d="M30.0625 6.35938C29.7432 6.35938 29.4844 6.10052 29.4844 5.78125V5.20312C29.4844 4.88386 29.7432 4.625 30.0625 4.625C30.3818 4.625 30.6406 4.88386 30.6406 5.20312V5.78125C30.6406 6.10052 30.3818 6.35938 30.0625 6.35938Z" fill="#FAA037"/>
<path d="M30.0625 9.25C29.7432 9.25 29.4844 8.99114 29.4844 8.67188V8.09375C29.4844 7.77448 29.7432 7.51562 30.0625 7.51562C30.3818 7.51562 30.6406 7.77448 30.6406 8.09375V8.67188C30.6406 8.99114 30.3818 9.25 30.0625 9.25Z" fill="#FAA037"/>
<path d="M28.9062 7.51562H28.3281C28.0089 7.51562 27.75 7.25677 27.75 6.9375C27.75 6.61823 28.0089 6.35938 28.3281 6.35938H28.9062C29.2255 6.35938 29.4844 6.61823 29.4844 6.9375C29.4844 7.25677 29.2255 7.51562 28.9062 7.51562Z" fill="#FAA037"/>
<path d="M31.7969 7.51562H31.2188C30.8995 7.51562 30.6406 7.25677 30.6406 6.9375C30.6406 6.61823 30.8995 6.35938 31.2188 6.35938H31.7969C32.1161 6.35938 32.375 6.61823 32.375 6.9375C32.375 7.25677 32.1161 7.51562 31.7969 7.51562Z" fill="#FAA037"/>
<path d="M32.375 17.3438C32.0557 17.3438 31.7969 17.0849 31.7969 16.7656V16.1875C31.7969 15.8682 32.0557 15.6094 32.375 15.6094C32.6943 15.6094 32.9531 15.8682 32.9531 16.1875V16.7656C32.9531 17.0849 32.6943 17.3438 32.375 17.3438Z" fill="#FAA037"/>
<path d="M32.375 20.2344C32.0557 20.2344 31.7969 19.9755 31.7969 19.6562V19.0781C31.7969 18.7589 32.0557 18.5 32.375 18.5C32.6943 18.5 32.9531 18.7589 32.9531 19.0781V19.6562C32.9531 19.9755 32.6943 20.2344 32.375 20.2344Z" fill="#FAA037"/>
<path d="M31.2188 18.5H30.6406C30.3214 18.5 30.0625 18.2411 30.0625 17.9219C30.0625 17.6026 30.3214 17.3438 30.6406 17.3438H31.2188C31.538 17.3438 31.7969 17.6026 31.7969 17.9219C31.7969 18.2411 31.538 18.5 31.2188 18.5Z" fill="#FAA037"/>
<path d="M34.1094 18.5H33.5312C33.212 18.5 32.9531 18.2411 32.9531 17.9219C32.9531 17.6026 33.212 17.3438 33.5312 17.3438H34.1094C34.4286 17.3438 34.6875 17.6026 34.6875 17.9219C34.6875 18.2411 34.4286 18.5 34.1094 18.5Z" fill="#FAA037"/>
<path d="M4.625 8.09375C4.30573 8.09375 4.04688 7.83489 4.04688 7.51562V6.9375C4.04688 6.61823 4.30573 6.35938 4.625 6.35938C4.94427 6.35938 5.20312 6.61823 5.20312 6.9375V7.51562C5.20312 7.83489 4.94427 8.09375 4.625 8.09375Z" fill="#FAA037"/>
<path d="M4.625 10.9844C4.30573 10.9844 4.04688 10.7255 4.04688 10.4062V9.82812C4.04688 9.50886 4.30573 9.25 4.625 9.25C4.94427 9.25 5.20312 9.50886 5.20312 9.82812V10.4062C5.20312 10.7255 4.94427 10.9844 4.625 10.9844Z" fill="#FAA037"/>
<path d="M3.46875 9.25H2.89062C2.57136 9.25 2.3125 8.99114 2.3125 8.67188C2.3125 8.35261 2.57136 8.09375 2.89062 8.09375H3.46875C3.78802 8.09375 4.04688 8.35261 4.04688 8.67188C4.04688 8.99114 3.78802 9.25 3.46875 9.25Z" fill="#FAA037"/>
<path d="M6.35938 9.25H5.78125C5.46198 9.25 5.20312 8.99114 5.20312 8.67188C5.20312 8.35261 5.46198 8.09375 5.78125 8.09375H6.35938C6.67864 8.09375 6.9375 8.35261 6.9375 8.67188C6.9375 8.99114 6.67864 9.25 6.35938 9.25Z" fill="#FAA037"/>
</svg>
