<svg width="30" height="30" viewBox="0 0 30 30" fill="none" xmlns="http://www.w3.org/2000/svg">
<path d="M19.3369 14.1161C18.8486 13.628 18.0573 13.628 17.5691 14.1161C17.0809 14.6042 17.0809 15.3957 17.5691 15.8838C18.0573 16.372 18.8486 16.372 19.3369 15.8838C19.825 15.3957 19.825 14.6042 19.3369 14.1161Z" fill="white"/>
<path d="M20.2208 11.4645C20.7089 10.9763 21.5004 10.9763 21.9885 11.4645C22.4766 11.9527 22.4766 12.7441 21.9885 13.2323C21.5004 13.7204 20.7089 13.7204 20.2208 13.2323C19.7326 12.7441 19.7326 11.9527 20.2208 11.4645Z" fill="white"/>
<path d="M24.6401 14.1161C24.152 13.628 23.3606 13.628 22.8724 14.1161C22.3842 14.6042 22.3842 15.3957 22.8724 15.8838C23.3606 16.372 24.152 16.372 24.6401 15.8838C25.1284 15.3957 25.1284 14.6042 24.6401 14.1161Z" fill="white"/>
<path d="M20.2208 16.7677C20.7089 16.2796 21.5004 16.2796 21.9885 16.7677C22.4766 17.256 22.4766 18.0473 21.9885 18.5355C21.5004 19.0237 20.7089 19.0237 20.2208 18.5355C19.7326 18.0473 19.7326 17.256 20.2208 16.7677Z" fill="white"/>
<path d="M7.5 16.25H5V13.75H7.5V11.25H10V13.75H12.5V16.25H10V18.75H7.5V16.25Z" fill="white"/>
<path fill-rule="evenodd" clip-rule="evenodd" d="M8.75 6.25C3.91751 6.25 0 10.1675 0 15C0 19.8325 3.91751 23.75 8.75 23.75H21.25C26.0825 23.75 30 19.8325 30 15C30 10.1675 26.0825 6.25 21.25 6.25H8.75ZM21.25 8.75H8.75C5.29822 8.75 2.5 11.5482 2.5 15C2.5 18.4517 5.29822 21.25 8.75 21.25H21.25C24.7017 21.25 27.5 18.4517 27.5 15C27.5 11.5482 24.7017 8.75 21.25 8.75Z" fill="white"/>
</svg>
