<svg width="35" height="36" viewBox="0 0 35 36" fill="none" xmlns="http://www.w3.org/2000/svg">
<path d="M31.434 28.5159C33.3378 25.7448 34.4529 22.3895 34.4529 18.7734C34.4529 9.25945 26.7403 1.54688 17.2264 1.54688C7.71251 1.54688 0 9.25945 0 18.7734C0 22.3911 1.11607 25.7477 3.02147 28.5195L31.434 28.5159Z" fill="#FF4155"/>
<path d="M17.1335 1.30273C13.1354 1.30273 9.88263 4.55546 9.88263 8.55364C9.89191 8.69286 9.8569 8.76816 9.92672 8.81851C10.0197 8.88552 10.0752 8.99359 10.0752 9.10756V9.51847C10.0752 9.89134 10.5166 10.0791 10.5752 9.89689C10.7234 9.43677 11.1332 9.39788 11.3051 9.40077C11.3101 9.40084 11.3151 9.40112 11.3204 9.40084C11.4619 9.4014 11.5987 9.44387 11.7163 9.52374C11.7738 9.56312 11.8552 9.53661 11.877 9.46805C11.9417 9.26302 11.9637 9.05546 11.9493 8.86105C11.8744 7.84116 11.93 6.04883 13.1434 5.50278C14.2265 5.01488 15.3171 5.35302 16.0339 5.49034C16.439 5.60825 17.1063 5.89196 18.0419 5.58076C18.9219 5.28805 20.1883 5.03689 21.2238 5.50271C22.4349 6.04777 22.4921 7.83554 22.4183 8.85282C22.4048 9.04041 22.4239 9.2292 22.475 9.41384C22.493 9.47902 22.5667 9.51045 22.6258 9.47987C23.0006 9.287 23.5436 9.43705 23.6919 9.89682C23.7081 9.94737 23.759 9.97768 23.8113 9.96875C24.0318 9.92973 24.1919 9.74038 24.1919 9.5184V9.10749C24.1919 8.99359 24.2473 8.88552 24.3404 8.81844C24.4104 8.76795 24.3752 8.69145 24.3844 8.55357C24.3844 4.55546 21.1317 1.30273 17.1335 1.30273Z" fill="#41416B"/>
<path d="M16.9322 1.54101C17.01 1.48687 17.0332 1.3878 16.999 1.30469C13.0627 1.37669 9.88263 4.60066 9.88263 8.55384C9.89191 8.69306 9.8569 8.76836 9.92672 8.81871C10.0197 8.88571 10.0752 8.99378 10.0752 9.10776V9.51867C10.0752 9.89153 10.5166 10.0793 10.5752 9.89709C10.7234 9.43696 11.1332 9.39808 11.3051 9.40096C11.3101 9.40103 11.3151 9.40132 11.3204 9.40103C11.4619 9.4016 11.5987 9.44407 11.7163 9.52394C11.7738 9.56339 11.8552 9.53681 11.877 9.46825C11.9417 9.26322 11.9637 9.05566 11.9493 8.86124C11.8744 7.84136 11.93 6.04903 13.1434 5.50298C14.2151 5.02021 15.294 5.34611 16.0111 5.48603L16.0588 5.38731C16.0589 5.38731 14.6878 3.10159 16.9322 1.54101Z" fill="#35355E"/>
<path d="M2.97266 28.449C6.07224 33.0062 11.2996 35.9997 17.2264 35.9997C23.1549 35.9997 28.3834 33.0046 31.4827 28.4454C31.0581 27.0903 30.2751 25.7642 28.85 25.0306L28.8504 25.0296C28.7544 24.9839 28.6265 24.9166 28.4043 24.8295C23.832 22.797 23.3051 22.8881 22.8416 22.7334C22.8556 22.7472 22.8681 22.7624 22.8774 22.7809C22.861 22.918 22.9489 22.8955 22.6269 23.7233C21.9594 25.3796 20.7458 26.8342 19.3393 27.9464C19.1972 28.0586 19.0006 28.066 18.85 27.9655C18.6074 27.8035 18.1805 29.3336 18.2036 29.7677C18.2118 30.0283 18.2056 29.7183 18.2078 33.2582C18.2078 33.3977 18.0922 33.5112 17.9502 33.5112C17.9383 33.5112 16.4617 33.5112 16.5065 33.5112C16.3646 33.5112 16.249 33.3977 16.249 33.2582C16.2512 29.7184 16.245 30.0279 16.2531 29.7677C16.2534 29.7646 16.2532 29.7615 16.253 29.7585C16.1936 28.993 15.826 27.8191 15.6068 27.9655C15.4561 28.0661 15.2596 28.0586 15.1175 27.9464C13.711 26.8341 12.4973 25.3796 11.8299 23.7233C11.5077 22.8955 11.5957 22.918 11.5793 22.7809C11.5886 22.7624 11.6011 22.7472 11.615 22.7334C11.1515 22.8881 10.6248 22.797 6.05248 24.8295C5.83023 24.9166 5.70226 24.9838 5.60628 25.0296L5.60677 25.0306C4.1802 25.7649 3.39706 27.0927 2.97266 28.449Z" fill="#FFDD40"/>
<path d="M11.5791 22.7809C11.5884 22.7624 11.6008 22.7472 11.6148 22.7334C11.1513 22.8881 10.6246 22.797 6.05227 24.8295C5.83002 24.9166 5.70205 24.9838 5.60607 25.0296L5.60656 25.0306C4.1802 25.7649 3.39706 27.0927 2.97266 28.449C4.12198 30.1389 5.56374 31.6137 7.22551 32.8005L7.78084 30.968C8.01786 30.1859 8.5734 29.5398 9.31112 29.1882L13.419 27.2307V26.3102C12.7576 25.529 12.2065 24.6583 11.8297 23.7233C11.5075 22.8955 11.5954 22.918 11.5791 22.7809Z" fill="#FFC839"/>
<path d="M12.9963 21.5669L13.073 21.989L13.0754 21.999C13.0976 22.096 13.1228 22.1937 13.1504 22.2893L13.1547 22.3038C13.1639 22.3356 13.1738 22.3681 13.1837 22.3998L13.1897 22.4192C13.2004 22.4525 13.2113 22.4863 13.2232 22.5218L13.2272 22.5334C13.4797 23.2749 14.0313 24.3558 15.2243 25.2935C15.5335 25.5367 15.8715 25.7601 16.2287 25.9577C16.3892 26.0465 16.5061 26.1814 16.5669 26.348C16.5709 26.359 16.577 26.3692 16.5848 26.378C16.768 26.5842 16.943 26.8108 17.105 27.0516C17.1399 27.1033 17.2258 27.1033 17.2605 27.0516C17.4218 26.8116 17.5973 26.5846 17.7819 26.3771C17.7897 26.3683 17.7958 26.3581 17.7998 26.347C17.8608 26.1808 17.9775 26.0462 18.1374 25.9577C20.7029 24.5387 21.2546 22.4472 21.372 21.5517C21.058 20.8327 20.9577 19.944 20.9342 19.2617C20.5553 19.7031 20.1577 20.0721 19.7777 20.3672C19.0375 20.9421 18.124 21.2543 17.1831 21.2543C16.2423 21.2543 15.3288 20.942 14.5885 20.3672C14.2086 20.0721 13.8109 19.7031 13.432 19.2617C13.4085 19.944 13.3082 20.8328 12.9941 21.5517L12.9963 21.5669Z" fill="#FCA870"/>
<path d="M14.589 20.3672C14.2091 20.0721 13.8114 19.7031 13.4325 19.2617C13.409 19.944 13.3086 20.8328 12.9946 21.5517L12.9965 21.567L13.0732 21.9891L13.0756 21.9991C13.0978 22.0961 13.123 22.1938 13.1507 22.2894L13.1549 22.3039C13.1642 22.3357 13.1739 22.3681 13.1839 22.3999L13.19 22.4192C13.2006 22.4526 13.2115 22.4864 13.2234 22.5218L13.2274 22.5334C13.4799 23.2749 14.0315 24.3558 15.2245 25.2935C15.3218 25.37 15.4228 25.4437 15.5255 25.5162C16.5716 23.7545 16.9072 22.1184 17.015 21.2509C16.1341 21.2158 15.285 20.9077 14.589 20.3672Z" fill="#F9955F"/>
<path d="M23.0154 10.3126C22.9413 10.1192 22.853 9.94149 22.7529 9.78442C22.5817 9.51589 22.5005 9.18774 22.5242 8.86037C22.5999 7.81546 22.5373 5.97742 21.2674 5.40599C20.2009 4.92624 18.9065 5.18141 18.0085 5.4801C17.4765 5.65714 16.8907 5.65707 16.3588 5.4801C15.4607 5.18141 14.1663 4.92596 13.0998 5.40599C12.5537 5.65173 11.6644 6.4284 11.8436 8.86874C11.8672 9.19021 11.7858 9.51547 11.6144 9.78456C11.5171 9.93707 11.4309 10.1092 11.3582 10.2959C11.1453 10.8431 11.0763 11.4503 11.1589 12.0521L11.4567 14.2181C11.4567 17.8054 13.6271 19.8779 14.5603 20.6026C15.305 21.181 16.2367 21.4996 17.1836 21.4996C18.1304 21.4996 19.0622 21.1811 19.8069 20.6026C20.74 19.878 22.9104 17.8053 22.9099 14.2246L23.2082 12.0526C23.2901 11.4568 23.2234 10.8551 23.0154 10.3126Z" fill="#F9BD91"/>
<path d="M17.0661 20.6026C16.4022 19.8781 14.8583 17.8055 14.8583 14.2182L14.6465 12.0521C14.5877 11.4504 14.6367 10.8432 14.7882 10.296C14.84 10.1092 14.9013 9.93706 14.9705 9.78455C15.0925 9.51547 15.1503 9.19027 15.1335 8.86873C15.006 6.4284 15.6386 5.65172 16.0271 5.40598C16.0376 5.39937 16.0482 5.3934 16.0588 5.387C15.1872 5.13535 14.0526 4.97708 13.0997 5.40598C12.5537 5.65172 11.6644 6.4284 11.8436 8.86873C11.8672 9.1902 11.7858 9.51547 11.6144 9.78455C11.5171 9.93706 11.4309 10.1092 11.3582 10.296C11.1453 10.8432 11.0763 11.4504 11.1589 12.0521L11.4567 14.2182C11.4567 17.8055 13.6271 19.878 14.5603 20.6026C15.305 21.1811 16.2367 21.4997 17.1836 21.4997C17.5291 21.4997 17.8723 21.4568 18.2054 21.3749C17.7928 21.2322 17.4026 20.9701 17.0661 20.6026Z" fill="#FCA870"/>
<path d="M17.2496 27.0988C16.7382 26.3085 16.2342 25.8936 16.2342 25.8936L14.9316 27.9856C15.87 28.5895 16.0376 30.0651 16.0675 30.5404C16.1453 29.0126 16.7239 27.8515 17.2496 27.0988Z" fill="#FF9100"/>
<path d="M18.2933 33.5881V30.6914C18.2933 30.6914 18.3097 28.7103 19.4357 27.9856L18.1332 25.8936C18.1332 25.8936 16.0576 27.599 16.0576 30.6915V33.5881H18.2933V33.5881Z" fill="#FFB332"/>
<path d="M16.2744 25.8752C13.6767 24.4385 13.176 22.2995 13.08 21.4803C13.063 21.3352 12.895 21.2635 12.7772 21.3499L11.0188 22.639C10.925 22.7079 10.88 22.8266 10.9083 22.9394C11.6079 25.7241 13.8569 27.7573 14.8483 28.5411C15.1007 28.7407 15.4687 28.6828 15.6483 28.4159C15.9022 28.0385 16.2615 27.5047 16.558 27.0641C16.8347 26.6527 16.7083 26.1152 16.2744 25.8752Z" fill="#FFC839"/>
<path d="M15.2826 25.2194C13.5428 23.8518 13.1622 22.1819 13.08 21.4802C13.063 21.3352 12.895 21.2635 12.7772 21.3499L11.0188 22.6391C10.925 22.7079 10.88 22.8266 10.9083 22.9395C11.356 24.7215 12.4379 26.195 13.419 27.2309C14.1979 24.6741 15.0666 25.0701 15.2826 25.2194Z" fill="#FFB332"/>
<path d="M23.3479 22.639L21.5895 21.3499C21.4717 21.2635 21.3038 21.3352 21.2867 21.4803C21.1907 22.2995 20.69 24.4385 18.0923 25.8752C17.6584 26.1152 17.5319 26.6527 17.8088 27.0641C18.1052 27.5047 18.4645 28.0385 18.7185 28.4159C18.8981 28.6828 19.2662 28.7406 19.5184 28.5412C20.5099 27.7573 22.7589 25.7241 23.4584 22.9394C23.4868 22.8266 23.4417 22.7078 23.3479 22.639Z" fill="#FFC839"/>
<path d="M17.7208 29.8465C17.7208 30.089 17.5242 30.2857 17.2815 30.2857C17.0389 30.2857 16.8423 30.089 16.8423 29.8465C16.8423 29.6039 17.0389 29.4072 17.2815 29.4072C17.5242 29.4072 17.7208 29.6039 17.7208 29.8465Z" fill="#FFC839"/>
<path d="M17.6226 32.0252C17.6226 32.2678 17.426 32.4644 17.1834 32.4644C16.9408 32.4644 16.7441 32.2678 16.7441 32.0252C16.7441 31.7826 16.9408 31.5859 17.1834 31.5859C17.426 31.5859 17.6226 31.7826 17.6226 32.0252Z" fill="#FFC839"/>
<path d="M16.0576 33.4902V34.3109C16.0576 34.5164 16.2264 34.6829 16.4345 34.6829H17.9165C18.1247 34.6829 18.2934 34.5164 18.2934 34.3109V33.4902H16.0576Z" fill="#FF9100"/>
<path d="M17.1333 0C12.4918 0 8.729 3.7627 8.729 8.40424V9.40331H9.98844V8.55394C9.98844 4.608 13.1873 1.40913 17.1332 1.40913C21.0793 1.40913 24.2781 4.608 24.2781 8.55394V9.40331H25.5376V8.40424C25.5376 3.7627 21.7749 0 17.1333 0V0Z" fill="#E3E7FC"/>
<path d="M8.729 8.40424V9.40331H9.98844V8.55394C9.98844 4.6485 13.1221 1.47537 17.0122 1.41068C17.0204 1.35577 17.0063 1.29734 16.9674 1.251C16.7776 1.02466 16.5614 0.571852 17.1332 0C12.4917 0 8.729 3.7627 8.729 8.40424Z" fill="#C8CEFC"/>
<path d="M25.2088 8.64551H24.5479C24.2926 8.64551 24.0855 8.85258 24.0855 9.10795V9.51886C24.0855 9.72804 23.9047 9.888 23.6964 9.86923L23.6924 9.86888C23.7182 9.94643 23.7323 10.0288 23.7323 10.1141V15.6234C23.7323 15.7087 23.7183 15.791 23.6924 15.8686C24.1417 15.8286 24.5637 15.7 24.9389 15.5012C25.3902 15.2621 25.6712 14.7917 25.6712 14.281V11.1245V10.7696V9.10795C25.6713 8.85251 25.4642 8.64551 25.2088 8.64551Z" fill="#C8CEFC"/>
<path d="M24.9393 12.0738C24.5753 12.2667 24.167 12.3927 23.7327 12.4366V15.6237C23.7327 15.709 23.7187 15.7914 23.6929 15.8689C24.1422 15.829 24.5642 15.7004 24.9394 15.5015C25.3907 15.2625 25.6717 14.7921 25.6717 14.2813V11.1248V10.8535C25.6717 11.3643 25.3906 11.8347 24.9393 12.0738Z" fill="#B8C0F4"/>
<path d="M23.0131 16.4419H22.9492C22.4989 16.4419 22.1304 16.0735 22.1304 15.6231V10.1138C22.1304 9.66343 22.4989 9.29492 22.9492 9.29492H23.0131C23.4635 9.29492 23.832 9.66343 23.832 10.1138V15.6231C23.8319 16.0735 23.4635 16.4419 23.0131 16.4419Z" fill="#E3E7FC"/>
<path d="M9.05808 8.64551H9.71895C9.97432 8.64551 10.1814 8.85258 10.1814 9.10795V9.51886C10.1814 9.72804 10.3622 9.888 10.5705 9.86923L10.5745 9.86888C10.5487 9.94643 10.5346 10.0288 10.5346 10.1141V15.6234C10.5346 15.7087 10.5487 15.791 10.5745 15.8686C10.1252 15.8286 9.7032 15.7 9.32801 15.5012C8.87667 15.2621 8.5957 14.7917 8.5957 14.281V11.1245V10.7696V9.10795C8.5957 8.85251 8.8027 8.64551 9.05808 8.64551Z" fill="#B8C0F4"/>
<path d="M10.5346 12.3663C10.1003 12.3224 9.69195 12.1963 9.32801 12.0035C8.87667 11.7644 8.5957 11.294 8.5957 10.7832V11.1248V14.2813C8.5957 14.792 8.87674 15.2624 9.32801 15.5015C9.7032 15.7003 10.1252 15.8289 10.5745 15.8689C10.5487 15.7914 10.5346 15.7091 10.5346 15.6237V12.3663H10.5346Z" fill="#A4B0EA"/>
<path d="M11.2534 16.4419H11.3173C11.7677 16.4419 12.1362 16.0735 12.1362 15.6231V10.1138C12.1362 9.66343 11.7678 9.29492 11.3173 9.29492H11.2534C10.803 9.29492 10.4346 9.66343 10.4346 10.1138V15.6231C10.4346 16.0735 10.803 16.4419 11.2534 16.4419Z" fill="#E3E7FC"/>
<path d="M23.0131 12.9643H22.9492C22.4988 12.9643 22.1304 12.5958 22.1304 12.1455V15.623C22.1304 16.0733 22.4988 16.4418 22.9492 16.4418H23.0131C23.4635 16.4418 23.8319 16.0734 23.8319 15.623V12.1455C23.832 12.5958 23.4635 12.9643 23.0131 12.9643Z" fill="#C8CEFC"/>
<path d="M11.3173 12.9643H11.2534C10.803 12.9643 10.4346 12.5958 10.4346 12.1455V15.623C10.4346 16.0733 10.803 16.4418 11.2534 16.4418H11.3173C11.7677 16.4418 12.1362 16.0734 12.1362 15.623V12.1455C12.1361 12.5958 11.7677 12.9643 11.3173 12.9643Z" fill="#C8CEFC"/>
<path d="M20.1988 21.6564C20.1128 21.3764 20.27 21.0798 20.5499 20.9937C21.6082 20.6685 22.5581 20.2615 23.1686 19.9772C23.3943 19.8722 23.5679 19.6755 23.6448 19.4377L24.4807 16.8506C24.6441 16.3447 24.3434 16.0025 24.2806 15.8255C24.151 15.5629 24.259 15.245 24.5216 15.1153C24.7843 14.9858 25.1021 15.0938 25.2317 15.3564C25.2801 15.5073 25.8059 16.198 25.4899 17.1766L24.654 19.7638C24.4868 20.2813 24.1084 20.7096 23.6162 20.9387C22.9754 21.2369 21.9774 21.6645 20.8615 22.0074C20.5803 22.094 20.2845 21.9351 20.1988 21.6564Z" fill="#E3E7FC"/>
<path d="M17.7152 22.9834C17.1881 22.9834 16.7607 22.5561 16.7607 22.0289C16.7607 21.5018 17.188 21.0744 17.7152 21.0744C18.3179 21.0744 19.0342 20.9664 19.8443 20.7534C20.3544 20.6191 20.8761 20.9238 21.0102 21.4337C21.1442 21.9435 20.8397 22.4654 20.3299 22.5995C19.3613 22.8542 18.4816 22.9834 17.7152 22.9834Z" fill="#FF4155"/>
<path d="M18.6782 21.7243C18.6782 21.415 18.8093 21.1369 19.0181 20.9404C18.5403 21.0294 18.1038 21.075 17.7152 21.075C17.1881 21.075 16.7607 21.5024 16.7607 22.0295C16.7607 22.5567 17.188 22.984 17.7152 22.984C18.2699 22.984 18.8846 22.9153 19.5486 22.7814C19.0526 22.6848 18.6782 22.2485 18.6782 21.7243Z" fill="#E80054"/>
<path d="M28.9382 1.30273H24.0915C21.5085 1.30273 19.395 3.41612 19.395 5.99919C19.395 8.58226 21.5084 10.6956 24.0915 10.6956H27.3942C27.5511 10.6956 27.6783 10.8228 27.6783 10.9797V12.6268C27.6783 12.8129 27.8803 12.9295 28.0411 12.8357C28.948 12.307 29.397 11.5712 29.6191 10.9522C29.6882 10.7595 29.8463 10.6111 30.0453 10.5625C32.0987 10.0616 33.6347 8.20116 33.6347 5.99912C33.6346 3.41619 31.5213 1.30273 28.9382 1.30273Z" fill="#49DAFC"/>
<path d="M19.395 5.99919C19.395 8.58226 21.5084 10.6956 24.0914 10.6956H25.594C23.7122 8.85127 25.4598 6.5818 25.4598 6.5818L25.1103 5.42431C23.3137 3.31578 25.1103 1.30505 25.1103 1.30505L25.1069 1.30273H24.0915C21.5084 1.30273 19.395 3.41619 19.395 5.99919Z" fill="#26C6F7"/>
<path d="M23.2158 6.05538C23.2158 6.4042 22.9331 6.68692 22.5843 6.68692C22.2354 6.68692 21.9526 6.4042 21.9526 6.05538C21.9526 5.70655 22.2354 5.42383 22.5843 5.42383C22.9331 5.42383 23.2158 5.70655 23.2158 6.05538Z" fill="white"/>
<path d="M25.7421 6.05538C25.7421 6.4042 25.4594 6.68692 25.1106 6.68692C24.7617 6.68692 24.479 6.4042 24.479 6.05538C24.479 5.70655 24.7617 5.42383 25.1106 5.42383C25.4594 5.42383 25.7421 5.70655 25.7421 6.05538Z" fill="white"/>
<path d="M28.2685 6.05538C28.2685 6.4042 27.9857 6.68692 27.6369 6.68692C27.2881 6.68692 27.0054 6.4042 27.0054 6.05538C27.0054 5.70655 27.2881 5.42383 27.6369 5.42383C27.9857 5.42383 28.2685 5.70655 28.2685 6.05538Z" fill="white"/>
<path d="M30.7943 6.05538C30.7943 6.4042 30.5116 6.68692 30.1628 6.68692C29.814 6.68692 29.5312 6.4042 29.5312 6.05538C29.5312 5.70655 29.814 5.42383 30.1628 5.42383C30.5116 5.42383 30.7943 5.70655 30.7943 6.05538Z" fill="white"/>
</svg>
