<svg width="36" height="36" viewBox="0 0 36 36" fill="none" xmlns="http://www.w3.org/2000/svg">
<g clip-path="url(#clip0_316_1108)">
<path d="M8.43755 23.8513V34.9441C8.43755 35.9548 9.72989 36.3855 10.3358 35.5765L15.7544 28.3534L17.4062 27.507L35.2912 2.21929L35.6239 0.25293L32.7179 1.8588L8.43164 22.9416L8.43755 23.8513Z" fill="#FE9923"/>
<path d="M34.5401 0.0841058C34.4925 0.10316 0.628101 17.1058 0.582117 17.1288C-0.156376 17.4981 -0.201798 18.5368 0.500765 18.9704L8.43666 23.8545L35.623 0.25609C35.3466 0.0166057 34.9497 -0.0856287 34.5401 0.0841058Z" fill="#FEDB41"/>
<path d="M35.6601 0.30468C35.6449 0.289844 35.6399 0.266852 35.6238 0.25293L35.4175 0.54543L15.7544 28.3533L27.9234 35.8422C28.5572 36.2318 29.3775 35.8604 29.5127 35.1387L35.9829 1.24891C36.0517 0.891226 35.9067 0.544797 35.6601 0.30468Z" fill="#FFCC33"/>
</g>
<defs>
<clipPath id="clip0_316_1108">
<rect width="36" height="36" fill="white"/>
</clipPath>
</defs>
</svg>
