<svg width="30" height="30" viewBox="0 0 30 30" fill="none" xmlns="http://www.w3.org/2000/svg">
<path fill-rule="evenodd" clip-rule="evenodd" d="M4.375 9.99997C4.37525 8.81486 4.68184 7.64994 5.26502 6.61826C5.84821 5.58657 6.68818 4.72316 7.70342 4.1118C8.71867 3.50045 9.87471 3.16191 11.0594 3.12905C12.244 3.09619 13.417 3.37011 14.4646 3.92424C15.5122 4.47838 16.3987 5.2939 17.0382 6.29167C17.6777 7.28944 18.0484 8.43557 18.1143 9.61884C18.1803 10.8021 17.9392 11.9823 17.4146 13.045C16.8899 14.1076 16.0995 15.0166 15.12 15.6837C17.2294 16.4574 19.059 17.8446 20.3733 19.6669C21.6876 21.4891 22.4266 23.663 22.495 25.9087C22.4987 26.0318 22.4781 26.1545 22.4344 26.2696C22.3907 26.3848 22.3247 26.4902 22.2403 26.5799C22.0698 26.761 21.8343 26.8669 21.5856 26.8743C21.337 26.8818 21.0956 26.7902 20.9145 26.6196C20.7334 26.4491 20.6275 26.2136 20.62 25.965C20.5456 23.5293 19.5257 21.2183 17.7765 19.5217C16.0273 17.8252 13.6862 16.8763 11.2494 16.8763C8.81256 16.8763 6.47149 17.8252 4.72229 19.5217C2.97308 21.2183 1.95319 23.5293 1.87875 25.965C1.86624 26.2098 1.75835 26.4399 1.5782 26.6061C1.39805 26.7723 1.15997 26.8614 0.914968 26.8542C0.669962 26.847 0.437516 26.7441 0.267428 26.5677C0.0973395 26.3912 0.00313699 26.1551 0.00500152 25.91C0.0731907 23.664 0.81201 21.4899 2.12636 19.6674C3.44071 17.8449 5.27043 16.4575 7.38 15.6837C6.45339 15.0534 5.6951 14.2059 5.1713 13.2152C4.64751 12.2245 4.37412 11.1206 4.375 9.99997ZM11.25 4.99997C9.92392 4.99997 8.65215 5.52676 7.71447 6.46444C6.77679 7.40212 6.25 8.67389 6.25 9.99997C6.25 11.3261 6.77679 12.5978 7.71447 13.5355C8.65215 14.4732 9.92392 15 11.25 15C12.5761 15 13.8479 14.4732 14.7855 13.5355C15.7232 12.5978 16.25 11.3261 16.25 9.99997C16.25 8.67389 15.7232 7.40212 14.7855 6.46444C13.8479 5.52676 12.5761 4.99997 11.25 4.99997Z" fill="white"/>
<path d="M21.6125 9.99999C21.4275 9.99999 21.2475 10.0125 21.07 10.0375C20.9461 10.0597 20.8189 10.0567 20.6962 10.0287C20.5735 10.0007 20.4576 9.94822 20.3556 9.87447C20.2535 9.80072 20.1674 9.70717 20.1023 9.59941C20.0372 9.49165 19.9945 9.37188 19.9767 9.24725C19.9589 9.12261 19.9664 8.99567 19.9987 8.87399C20.031 8.75231 20.0875 8.63839 20.1648 8.53902C20.2421 8.43965 20.3386 8.35687 20.4486 8.29561C20.5586 8.23436 20.6798 8.19588 20.805 8.18249C22.0482 8.00274 23.3159 8.24148 24.4086 8.86114C25.5013 9.4808 26.3569 10.4462 26.8408 11.6054C27.3247 12.7646 27.4094 14.0518 27.0816 15.2644C26.7538 16.477 26.032 17.5462 25.03 18.3037C26.503 18.9633 27.7536 20.035 28.6311 21.3895C29.5085 22.7441 29.9753 24.3236 29.975 25.9375C29.975 26.1861 29.8762 26.4246 29.7004 26.6004C29.5246 26.7762 29.2861 26.875 29.0375 26.875C28.7889 26.875 28.5504 26.7762 28.3746 26.6004C28.1988 26.4246 28.1 26.1861 28.1 25.9375C28.0999 24.5427 27.6504 23.185 26.8183 22.0656C25.9862 20.9462 24.8156 20.1246 23.48 19.7225L22.8125 19.5225V17.4275L23.325 17.1662C24.0847 16.7814 24.6925 16.1518 25.0504 15.379C25.4082 14.6063 25.4952 13.7355 25.2973 12.9072C25.0994 12.0789 24.6281 11.3415 23.9595 10.814C23.2909 10.2865 22.4641 9.99976 21.6125 9.99999Z" fill="white"/>
</svg>
