<svg width="24" height="25" viewBox="0 0 24 25" fill="none" xmlns="http://www.w3.org/2000/svg">
<path fill-rule="evenodd" clip-rule="evenodd" d="M17.7946 13.6793C17.1204 13.0052 16.0642 12.9006 15.2709 13.4294L14.5764 13.8925C13.0903 12.6211 11.8093 11.3466 10.5374 9.87052L11.027 9.05446C11.4992 8.26751 11.3752 7.26019 10.7262 6.61126L9.42814 5.31315C8.76477 4.64978 7.68925 4.64977 7.02587 5.31312L7.02582 5.31305C5.63573 6.70314 5.42592 8.90348 6.62505 10.4613C8.88644 13.3991 10.9557 15.4594 13.892 17.7212C15.4484 18.9201 17.6481 18.7138 19.0373 17.3245C19.0372 17.3245 19.0372 17.3244 19.0371 17.3244L19.0375 17.3245C19.7009 16.6612 19.7009 15.5856 19.0375 14.9222L17.7946 13.6793Z" fill="#4EAF52"/>
</svg>
