<svg width="30" height="30" viewBox="0 0 30 30" fill="none" xmlns="http://www.w3.org/2000/svg">
<g clip-path="url(#clip0_53_304)">
<path d="M29.8754 9.8651C29.7211 9.6125 29.4464 9.45833 29.1505 9.45833H4.31017L6.28396 5.84774H10.2245L11.884 7.6301C12.0447 7.80273 12.2699 7.90083 12.5057 7.90083H15C15.2253 7.90083 15.4413 7.81134 15.6008 7.65208L19.5605 3.69227H24.7012L25.4343 5.96578C25.5783 6.4123 26.0572 6.65765 26.5035 6.51357C26.95 6.3696 27.1952 5.8909 27.0513 5.44438L26.1284 2.58196C26.0154 2.23104 25.6887 1.99316 25.3199 1.99316H19.2087C18.9834 1.99316 18.7674 2.08265 18.6079 2.24191L14.6482 6.20172H12.8757L11.2162 4.41937C11.0555 4.24674 10.8303 4.14864 10.5945 4.14864H5.78034C5.46975 4.14864 5.18385 4.3181 5.03489 4.59064L2.37376 9.45833H0.849553C0.553569 9.45833 0.278881 9.61239 0.124603 9.8651C-0.0296753 10.1176 -0.0414558 10.4324 0.0937927 10.6957L3.91904 18.1504C4.13335 18.5679 4.64546 18.7326 5.06276 18.5184C5.48028 18.3042 5.64498 17.7922 5.43078 17.3747L2.24032 11.1574H2.87488C2.87545 11.1574 2.87601 11.1575 2.87669 11.1575C2.87726 11.1575 2.87783 11.1574 2.87839 11.1574H27.7596L22.9646 20.5025H6.51651C6.04722 20.5025 5.66696 20.8827 5.66696 21.352C5.66696 21.8043 6.0206 22.173 6.46644 22.1991C6.07791 22.79 5.85091 23.4962 5.85091 24.2547C5.85091 26.3237 7.53404 28.0069 9.6031 28.0069C11.6721 28.0069 13.3553 26.3237 13.3553 24.2547C13.3553 23.4972 13.129 22.792 12.7414 22.2016H17.2584C16.8709 22.792 16.6446 23.4972 16.6446 24.2547C16.6446 26.3237 18.3278 28.0069 20.3968 28.0069C22.4659 28.0069 24.149 26.3237 24.149 24.2547C24.149 23.4957 23.9219 22.7891 23.5329 22.1982C23.8318 22.1806 24.1014 22.0086 24.2393 21.7399L29.9062 10.6957C30.0415 10.4324 30.0298 10.1176 29.8754 9.8651ZM11.6562 24.2547C11.6562 25.3867 10.7351 26.3078 9.6031 26.3078C8.47104 26.3078 7.55001 25.3867 7.55001 24.2547C7.55001 23.1226 8.47104 22.2016 9.6031 22.2016C10.7351 22.2016 11.6562 23.1226 11.6562 24.2547ZM20.3969 26.3078C19.2649 26.3078 18.3438 25.3867 18.3438 24.2547C18.3438 23.1226 19.2647 22.2016 20.3969 22.2016C21.5291 22.2016 22.45 23.1226 22.45 24.2547C22.45 25.3867 21.529 26.3078 20.3969 26.3078Z" fill="white"/>
<path d="M22.3465 16.184C22.8158 16.184 23.196 15.8037 23.196 15.3344C23.196 14.8651 22.8158 14.4849 22.3465 14.4849H7.76241C7.29312 14.4849 6.91286 14.8651 6.91286 15.3344C6.91286 15.8037 7.29312 16.184 7.76241 16.184H22.3465Z" fill="white"/>
</g>
<defs>
<clipPath id="clip0_53_304">
<rect width="30" height="30" fill="white"/>
</clipPath>
</defs>
</svg>
