<svg width="36" height="36" viewBox="0 0 36 36" fill="none" xmlns="http://www.w3.org/2000/svg">
<path d="M10.6172 36H0V25.3828H12.7266V33.8906L10.6172 36Z" fill="#57D9AD"/>
<path d="M36 36H25.3828L23.2734 33.8906V27.4922H36V36Z" fill="#FF435B"/>
<path d="M10.6172 21.1641V36H25.3828V21.1641H10.6172Z" fill="#FFE274"/>
<path d="M18 21.1641H25.3828V36H18V21.1641Z" fill="#FFB62A"/>
<path d="M10.6172 5.34375V2.10938H14.8359L12.7266 0H8.50781V5.34375C8.50781 7.08848 9.92714 8.50781 11.6719 8.50781H14.3456V6.39844H11.6719C11.09 6.39844 10.6172 5.92566 10.6172 5.34375Z" fill="#FFB62A"/>
<path d="M23.2734 0L21.1641 2.10938H25.3828V5.34375C25.3828 5.92566 24.91 6.39844 24.3281 6.39844H21.6544V8.50781H24.3281C26.0729 8.50781 27.4922 7.08848 27.4922 5.34375V0H23.2734Z" fill="#FF9100"/>
<path d="M16.9453 9.5625H19.0547V13.7812H16.9453V9.5625Z" fill="#FFB62A"/>
<path d="M18 9.5625H19.0547V13.7812H18V9.5625Z" fill="#FF9100"/>
<path d="M12.7266 0V5.34375C12.7266 8.25469 15.0891 10.6172 18 10.6172C20.9109 10.6172 23.2734 8.25469 23.2734 5.34375V0H12.7266Z" fill="#FFE274"/>
<path d="M18 10.6172V0H23.2734V5.34375C23.2734 8.25469 20.9109 10.6172 18 10.6172Z" fill="#FFB62A"/>
<path d="M20.9319 12.7266H15.0679L13.4858 19.0547H22.514L20.9319 12.7266Z" fill="#FF7B4A"/>
<path d="M22.5141 19.0547H18V12.7266H20.932L22.5141 19.0547Z" fill="#FF435B"/>
<path d="M16.9453 25.3828H19.0547V31.7109H16.9453V25.3828Z" fill="#4A696F"/>
<path d="M18 25.3828H19.0547V31.7109H18V25.3828Z" fill="#384949"/>
</svg>
