<svg width="37" height="37" viewBox="0 0 37 37" fill="none" xmlns="http://www.w3.org/2000/svg">
<path d="M30.3287 11.8494V27.9668H3.4668V11.8494L16.8981 3.79102L30.3287 11.8494Z" fill="#FFA001"/>
<path d="M30.3285 11.8494V27.9668H16.8979V3.79102L30.3285 11.8494Z" fill="#F87F02"/>
<path d="M0 11.8497L3.46644 3.79102H16.8976L13.4311 11.8497H0Z" fill="#FFDA2D"/>
<path d="M33.795 11.8497L30.3285 3.79102H16.8975L20.3639 11.8497H33.795Z" fill="#FCBE00"/>
<path d="M7.78418 21.2129H9.95215V23.3809H7.78418V21.2129Z" fill="#FFDA2D"/>
<path d="M36.9998 25.2815C36.9998 29.6601 33.4501 33.2098 29.0716 33.2098C24.6923 33.2098 21.1426 29.6601 21.1426 25.2815C21.1426 20.9022 24.6923 17.3525 29.0716 17.3525C33.4501 17.3525 36.9998 20.9022 36.9998 25.2815V25.2815Z" fill="#83E470"/>
<path d="M37 25.2815C37 29.6601 33.4504 33.2098 29.0718 33.2098V17.3525C33.4504 17.3525 37 20.9022 37 25.2815V25.2815Z" fill="#01B763"/>
<path d="M33.2206 23.9966L29.0719 28.1453L28.3528 28.8644L24.9224 25.4339L26.4558 23.9012L28.3528 25.7981L29.0719 25.0792L31.6872 22.4639L33.2206 23.9966Z" fill="#F3FDFF"/>
<path d="M33.2205 23.9966L29.0718 28.1453V25.0792L31.6871 22.4639L33.2205 23.9966Z" fill="#D7F3F7"/>
</svg>
