<svg width="30" height="30" viewBox="0 0 30 30" fill="none" xmlns="http://www.w3.org/2000/svg">
<path d="M29.4642 3.75H0.535776C0.239635 3.75 0 3.98964 0 4.28564V8.03566V18.7499V25.7142C0 26.0103 0.239635 26.25 0.535776 26.25H29.4642C29.7604 26.25 30 26.0103 30 25.7142V18.7499V8.03566V4.28564C30 3.98964 29.7604 3.75 29.4642 3.75ZM1.07141 8.57143H5.89284V18.2143H1.07141V8.57143ZM28.9286 18.2143H27.3214V8.57143H28.9286V18.2143ZM28.9286 7.50002H26.7858C26.4896 7.50002 26.25 7.73965 26.25 8.03579V18.7501C26.25 19.0462 26.4896 19.2858 26.7858 19.2858H28.9286V25.1787H1.07141V25.1785V19.2857H6.42862C6.72476 19.2857 6.9644 19.0461 6.9644 18.7499V8.03566C6.9644 7.73951 6.72476 7.49988 6.42862 7.49988H1.07141V4.82141H28.9286V7.50002Z" fill="white"/>
<path d="M15.5357 23.5714C16.1274 23.5714 16.6071 23.0917 16.6071 22.4999C16.6071 21.9082 16.1274 21.4285 15.5357 21.4285C14.944 21.4285 14.4643 21.9082 14.4643 22.4999C14.4643 23.0917 14.944 23.5714 15.5357 23.5714Z" fill="white"/>
<path d="M9.10709 19.2858H24.107C24.4032 19.2858 24.6428 19.0462 24.6428 18.75V8.03564C24.6428 7.73964 24.4032 7.5 24.1072 7.5H9.10709C8.81095 7.5 8.57131 7.73964 8.57131 8.03578V18.75C8.57131 19.0462 8.81095 19.2858 9.10709 19.2858ZM9.64286 8.57141H23.5714V18.2143H9.64286V8.57141Z" fill="white"/>
<path d="M10.7143 21.9643H9.10709V23.0357H10.7143V21.9643Z" fill="white"/>
<path d="M13.3929 21.9643H11.7857V23.0357H13.3929V21.9643Z" fill="white"/>
<path d="M19.2857 21.9643H17.6785V23.0357H19.2857V21.9643Z" fill="white"/>
<path d="M21.9643 21.9643H20.3571V23.0357H21.9643V21.9643Z" fill="white"/>
</svg>
