<svg width="20" height="20" viewBox="0 0 20 20" fill="none" xmlns="http://www.w3.org/2000/svg">
<path d="M19.1667 3.33332H16.6667V0.83332C16.6667 0.373086 16.2936 0 15.8333 0H0.83332C0.373086 0 0 0.373086 0 0.83332V17.5C0 17.9602 0.373086 18.3333 0.83332 18.3333H3.33332V19.1666C3.33332 19.6269 3.70641 20 4.16664 20H19.1666C19.6269 20 20 19.6269 20 19.1666V4.16664C20 3.70645 19.6269 3.33332 19.1667 3.33332ZM1.66668 16.6667V1.66668H15V3.33336H4.16668C3.70645 3.33336 3.33336 3.70645 3.33336 4.16668V16.6667H1.66668ZM18.3333 18.3333H5V17.5V5H15.8333H18.3333V18.3333Z" fill="white"/>
<path d="M12.5 10.8333V7.50001C12.5 7.03977 12.1269 6.66669 11.6667 6.66669C11.2065 6.66669 10.8334 7.03977 10.8334 7.50001V10.8333H7.50001C7.03977 10.8333 6.66669 11.2064 6.66669 11.6666C6.66669 12.1269 7.03977 12.5 7.50001 12.5H10.8333V15.8333C10.8333 16.2935 11.2064 16.6666 11.6666 16.6666C12.1269 16.6666 12.5 16.2935 12.5 15.8333V12.5H15.8333C16.2935 12.5 16.6666 12.1269 16.6666 11.6667C16.6666 11.2065 16.2935 10.8334 15.8333 10.8334H12.5V10.8333Z" fill="white"/>
</svg>
