<svg width="30" height="30" viewBox="0 0 30 30" fill="none" xmlns="http://www.w3.org/2000/svg">
<path d="M28.5 22.925C25.4999 21.334 23.2025 20.4458 21.1567 20.1096L21.4 19.775C21.5 19.675 21.55 19.525 21.5 19.375L21.0407 17.5376C22.2744 15.7879 23 13.6033 23 11.525V8.025C23 3.62502 19.4 0.0250244 15.0001 0.0250244C10.6001 0.0250244 7.00002 3.62502 7.00002 8.025V11.525C7.00002 13.6032 7.72564 15.7879 8.95934 17.5376L8.50002 19.375C8.50002 19.525 8.50002 19.675 8.60004 19.825L8.81092 20.1149C6.77326 20.4552 4.48424 21.3425 1.50006 22.925C0.550019 23.375 0 24.325 0 25.375V29.475C0 29.775 0.19998 29.975 0.49998 29.975H12.5H17.5H29.5C29.8 29.975 29.9999 29.775 29.9999 29.475V25.375C30 24.375 29.4 23.425 28.5 22.925ZM15 21.7375L15.15 22.075L16.2 24.5251H13.7611L15 21.7375ZM13.4318 25.6818L13.45 25.525H16.55L16.5681 25.6818L16.9382 28.975H13.0618L13.4318 25.6818ZM20.25 18.525L20.45 19.425L19.9392 20.1263C19.9066 20.153 19.8765 20.1853 19.85 20.225L17.7697 23.1053L17.1103 24.0107L15.7624 20.9779C17.4064 20.7773 18.8706 19.9393 20.0444 18.7387C20.1137 18.6689 20.1823 18.5979 20.25 18.525ZM7.99998 8.025C7.99998 4.17499 11.15 1.02499 15 1.02499C18.85 1.02499 22 4.17499 22 8.025V11.525C22 13.6724 21.2743 15.5842 20.1795 17.0485L20.1001 17.075C20.0501 17.125 20 17.175 19.9501 17.225C18.6001 19.025 16.8501 19.975 15.0001 19.975H15.0001C13.2001 19.975 11.45 18.9749 10.0501 17.225C10.0001 17.175 9.95004 17.125 9.90006 17.075L9.82061 17.0485C8.72578 15.5842 8.0001 13.6724 8.0001 11.525V8.025H7.99998ZM14.2376 20.9779L12.8896 24.0108L12.23 23.105L10.15 20.225C10.1341 20.209 10.1165 20.1933 10.0982 20.1778L9.55002 19.425L9.75 18.525C9.81773 18.598 9.88641 18.669 9.95572 18.7389C11.1295 19.9395 12.5936 20.7774 14.2376 20.9779ZM1.00002 25.375C1.00002 24.725 1.35 24.125 1.95 23.825C5.13709 22.1319 7.43133 21.2821 9.47508 21.0283L12.4987 25.1858L12.05 28.9751H1.00002V25.375ZM29 28.975H17.9994L17.5591 25.0562L20.5245 20.9788C22.5687 21.282 24.9125 22.1316 28.05 23.775C28.65 24.125 29 24.725 29 25.375V28.975V28.975Z" fill="white"/>
</svg>
