<svg width="36" height="36" viewBox="0 0 36 36" fill="none" xmlns="http://www.w3.org/2000/svg">
<path d="M35.4375 18V23.0625C35.4366 23.3606 35.3178 23.6462 35.107 23.857C34.8962 24.0678 34.6106 24.1866 34.3125 24.1875H26.4375C26.1394 24.1866 25.8538 24.0678 25.643 23.857C25.4322 23.6462 25.3134 23.3606 25.3125 23.0625V19.6875C25.3134 19.3894 25.4322 19.1038 25.643 18.893C25.8538 18.6822 26.1394 18.5634 26.4375 18.5625H33.1875V16.875H34.3125C34.6106 16.8759 34.8962 16.9947 35.107 17.2055C35.3178 17.4163 35.4366 17.7019 35.4375 18ZM29.25 21.375C29.25 21.1525 29.184 20.935 29.0604 20.75C28.9368 20.565 28.7611 20.4208 28.5555 20.3356C28.35 20.2505 28.1238 20.2282 27.9055 20.2716C27.6873 20.315 27.4868 20.4222 27.3295 20.5795C27.1722 20.7368 27.065 20.9373 27.0216 21.1555C26.9782 21.3738 27.0005 21.6 27.0856 21.8055C27.1708 22.0111 27.315 22.1868 27.5 22.3104C27.685 22.434 27.9025 22.5 28.125 22.5C28.4231 22.4991 28.7087 22.3803 28.9195 22.1695C29.1303 21.9587 29.2491 21.6731 29.25 21.375Z" fill="#E03E3E"/>
<path d="M30.735 0.5625L35.4375 13.9388L33.1875 14.7431V11.25C33.1866 10.9519 33.0678 10.6663 32.857 10.4555C32.6462 10.2447 32.3606 10.1259 32.0625 10.125H31.1344L29.5481 5.61375C29.2789 5.70966 28.9934 5.75138 28.7081 5.7365C28.4227 5.72162 28.1431 5.65044 27.8853 5.52705C27.6276 5.40367 27.3968 5.23051 27.2062 5.01756C27.0157 4.80461 26.8691 4.55607 26.775 4.28625L10.395 10.1025V10.125H5.625C5.48556 10.1252 5.34634 10.1139 5.20875 10.0913L5.0625 9.68625L24.21 2.88L30.735 0.5625Z" fill="#36CE94"/>
<path d="M2.86875 7.8585C2.98056 8.42674 3.26551 8.94645 3.68448 9.34628C4.10345 9.74612 4.6359 10.0065 5.20875 10.0916C5.34634 10.1143 5.48556 10.1255 5.625 10.1254H32.0625C32.3606 10.1263 32.6462 10.2451 32.857 10.4559C33.0678 10.6666 33.1866 10.9523 33.1875 11.2504V18.5629H26.4375C26.1394 18.5638 25.8538 18.6826 25.643 18.8934C25.4322 19.1041 25.3134 19.3898 25.3125 19.6879V23.0629C25.3134 23.361 25.4322 23.6466 25.643 23.8574C25.8538 24.0682 26.1394 24.187 26.4375 24.1879H33.1875V30.3754C33.1875 31.056 32.1806 32.0629 30.9375 32.0629H23.0625V23.0629C23.0616 22.7648 22.9428 22.4791 22.732 22.2684C22.5212 22.0576 22.2356 21.9388 21.9375 21.9379H3.9375C3.63941 21.9388 3.35377 22.0576 3.14299 22.2684C2.9322 22.4791 2.81339 22.7648 2.8125 23.0629V32.0629C2.21576 32.0629 1.64347 31.8258 1.22151 31.4039C0.799553 30.9819 0.5625 30.4096 0.5625 29.8129V7.87537C0.5625 6.98027 0.918079 6.12182 1.55101 5.48889C2.18395 4.85595 3.04239 4.50037 3.9375 4.50037H5.74312C5.02936 4.48893 4.33653 4.74159 3.7977 5.20983C3.25886 5.67807 2.91201 6.32887 2.82375 7.03725C2.79597 7.31167 2.81115 7.58875 2.86875 7.8585Z" fill="#FEBD55"/>
<path d="M29.5481 5.61363L31.1344 10.1249H10.395V10.1024L26.775 4.28613C26.8691 4.55595 27.0157 4.8045 27.2062 5.01745C27.3968 5.2304 27.6276 5.40355 27.8853 5.52694C28.1431 5.65032 28.4227 5.7215 28.7081 5.73638C28.9935 5.75126 29.279 5.70955 29.5481 5.61363Z" fill="#2FB380"/>
<path d="M28.125 22.5C28.7463 22.5 29.25 21.9963 29.25 21.375C29.25 20.7537 28.7463 20.25 28.125 20.25C27.5037 20.25 27 20.7537 27 21.375C27 21.9963 27.5037 22.5 28.125 22.5Z" fill="#2B2B37"/>
<path d="M12.1612 4.5L23.0624 0.5625L24.1874 2.8125L24.2099 2.88L5.0624 9.68625L5.20865 10.0913C4.63581 10.0061 4.10335 9.74575 3.68438 9.34591C3.26541 8.94608 2.98046 8.42637 2.86865 7.85813L12.1612 4.5Z" fill="#2FB380"/>
<path d="M12.161 4.50037L2.86855 7.8585C2.81095 7.58875 2.79577 7.31167 2.82355 7.03725C2.9118 6.32887 3.25866 5.67807 3.79749 5.20983C4.33633 4.74159 5.02916 4.48893 5.74292 4.50037H12.161Z" fill="#BD6F08"/>
<path d="M23.0625 32.0625V34.3125C23.0616 34.6106 22.9428 34.8962 22.732 35.107C22.5212 35.3178 22.2356 35.4366 21.9375 35.4375H3.9375C3.63941 35.4366 3.35377 35.3178 3.14299 35.107C2.9322 34.8962 2.81339 34.6106 2.8125 34.3125V27H23.0625V32.0625Z" fill="#FF6161"/>
<path d="M23.0625 25.3125V27H22.5H3.375H2.8125V25.3125H3.375H22.5H23.0625Z" fill="#EDF4FA"/>
<path d="M23.0625 23.0625V25.3125H2.8125V23.0625C2.81339 22.7644 2.9322 22.4788 3.14299 22.268C3.35377 22.0572 3.63941 21.9384 3.9375 21.9375H21.9375C22.2356 21.9384 22.5212 22.0572 22.732 22.268C22.9428 22.4788 23.0616 22.7644 23.0625 23.0625Z" fill="#CB3541"/>
<path d="M21.9375 33.75H15.75C13.6576 33.7487 11.6171 33.099 9.90926 31.8902C8.20141 30.6814 6.91021 28.9729 6.21337 27H2.8125V34.3125C2.81339 34.6106 2.9322 34.8962 3.14299 35.107C3.35377 35.3178 3.63941 35.4366 3.9375 35.4375H21.9375C22.2356 35.4366 22.5212 35.3178 22.732 35.107C22.9428 34.8962 23.0616 34.6106 23.0625 34.3125V32.625C23.0625 32.9234 22.944 33.2095 22.733 33.4205C22.522 33.6315 22.2359 33.75 21.9375 33.75Z" fill="#E03E3E"/>
<path d="M6.21337 27C6.01929 26.4512 5.87324 25.8866 5.77688 25.3125H2.8125V27H6.21337Z" fill="#C1CFE8"/>
<path d="M5.77688 25.3125C5.67943 24.7552 5.62863 24.1907 5.625 23.625V21.9375H3.9375C3.63941 21.9384 3.35377 22.0572 3.14299 22.268C2.9322 22.4788 2.81339 22.7644 2.8125 23.0625V25.3125H5.77688Z" fill="#A81E29"/>
<path d="M24.1874 2.81291L23.7307 1.89941L6.64753 8.06835C6.37316 8.16741 6.07104 8.15603 5.8049 8.0366C5.53876 7.91718 5.32942 7.69905 5.22103 7.42823L5.07422 7.06147L2.86865 7.85854C2.98046 8.42678 3.26541 8.94649 3.68438 9.34633C4.10335 9.74616 4.63581 10.0065 5.20865 10.0917L5.0624 9.68666L24.2099 2.88041L24.1874 2.81291Z" fill="#2AA173"/>
<path d="M15.084 8.4375H8.57531L5.0625 9.68625L5.20875 10.0913C5.34634 10.1139 5.48556 10.1252 5.625 10.125H10.395V10.1025L15.084 8.4375Z" fill="#2FB380"/>
<path d="M35.4377 13.9387L33.5038 8.4375H30.5439L31.1374 10.125H32.0627C32.3608 10.1259 32.6464 10.2447 32.8572 10.4555C33.068 10.6663 33.1868 10.9519 33.1877 11.25V14.7431L35.4377 13.9387Z" fill="#2FB380"/>
<path d="M15.084 8.4375L10.395 10.1025V10.125H31.1344L30.541 8.4375H15.084Z" fill="#2AA173"/>
<path d="M34.875 23.0625H29.25C29.0108 23.0619 28.7745 23.0102 28.557 22.9107C28.3395 22.8113 28.1458 22.6664 27.9889 22.4859C27.7162 22.4546 27.4646 22.3241 27.2819 22.1192C27.0992 21.9144 26.9983 21.6495 26.9983 21.375C26.9983 21.1005 27.0992 20.8356 27.2819 20.6308C27.4646 20.4259 27.7162 20.2954 27.9889 20.2641C28.1458 20.0836 28.3395 19.9387 28.557 19.8393C28.7745 19.7398 29.0108 19.6881 29.25 19.6875H33.1875C33.4859 19.6875 33.772 19.569 33.983 19.358C34.194 19.147 34.3125 18.8609 34.3125 18.5625V16.875H33.1875V18.5625H26.4375C26.1394 18.5634 25.8538 18.6822 25.643 18.893C25.4322 19.1038 25.3134 19.3894 25.3125 19.6875V23.0625C25.3134 23.3606 25.4322 23.6462 25.643 23.857C25.8538 24.0678 26.1394 24.1866 26.4375 24.1875H34.3125C34.6106 24.1866 34.8962 24.0678 35.107 23.857C35.3178 23.6462 35.4366 23.3606 35.4375 23.0625V22.5C35.4375 22.6492 35.3782 22.7923 35.2727 22.8977C35.1673 23.0032 35.0242 23.0625 34.875 23.0625Z" fill="#CB3541"/>
<path d="M27 25.8757H33.1875V24.1882H26.4375C26.2394 24.187 26.0451 24.1328 25.875 24.0312V24.7507C25.875 25.0491 25.9935 25.3352 26.2045 25.5462C26.4155 25.7572 26.7016 25.8757 27 25.8757Z" fill="#FC9E20"/>
<path d="M2.8125 25.3129V23.0629C2.81339 22.7648 2.9322 22.4791 3.14299 22.2684C3.35377 22.0576 3.63941 21.9388 3.9375 21.9379H5.0625V10.0579C4.52051 9.94889 4.02293 9.68186 3.63251 9.29044C3.2421 8.89903 2.97634 8.40076 2.86875 7.8585C2.81115 7.58875 2.79597 7.31167 2.82375 7.03725C2.91201 6.32887 3.25886 5.67807 3.7977 5.20983C4.33653 4.74159 5.02936 4.48893 5.74312 4.50037H3.9375C3.04239 4.50037 2.18395 4.85595 1.55101 5.48889C0.918079 6.12182 0.5625 6.98027 0.5625 7.87537V29.8129C0.5625 30.4096 0.799553 30.9819 1.22151 31.4039C1.64347 31.8258 2.21576 32.0629 2.8125 32.0629V25.3129Z" fill="#FC9E20"/>
<path d="M31.5 29.8125H27C26.4033 29.8125 25.831 29.5754 25.409 29.1535C24.9871 28.7315 24.75 28.1592 24.75 27.5625V24.75C24.75 24.4516 24.6315 24.1655 24.4205 23.9545C24.2095 23.7435 23.9234 23.625 23.625 23.625H23.0625V32.0625H30.9375C32.1806 32.0625 33.1875 31.0556 33.1875 30.375V28.125C33.1875 28.5725 33.0097 29.0018 32.6932 29.3182C32.3768 29.6347 31.9476 29.8125 31.5 29.8125Z" fill="#FC9E20"/>
</svg>
